<?xml version="1.0" encoding="utf-8"?>
<!-- Generator: Adobe Illustrator 24.3.0, SVG Export Plug-In . SVG Version: 6.00 Build 0)  -->
<svg version="1.1" id="Layer_1" xmlns="http://www.w3.org/2000/svg" xmlns:xlink="http://www.w3.org/1999/xlink" x="0px" y="0px"
	 viewBox="0 0 127.3 49" style="enable-background:new 0 0 127.3 49;" xml:space="preserve">
<style type="text/css">
	.st0{fill:#2F2F2F;}
	.st1{fill:#B21A81;}
	.st2{fill:#FFFFFF;}
	.st3{fill:#3C3E3D;}
	.st4{fill:#31BFC3;}
	.st5{opacity:0.25;}
	.st6{fill:#808080;}
	.st7{fill:none;stroke:#808080;stroke-width:0.3983;stroke-miterlimit:10;}
	.st8{fill:#93B48E;}
	.st9{opacity:0.88;fill:none;stroke:#93B48E;stroke-width:0.914;stroke-miterlimit:10;}
	.st10{fill:#E9A036;}
	.st11{fill:#A95A21;}
	.st12{fill:none;stroke:#DE001C;stroke-width:0.4874;stroke-miterlimit:10;}
	.st13{fill:#1C816E;}
	.st14{fill:#5BB9A4;}
	.st15{fill:#122D24;}
	.st16{fill:#175929;}
	.st17{fill:#80BC27;}
	.st18{fill:#7FBA28;}
	.st19{fill:#7FB829;}
	.st20{fill:#80BC28;}
	.st21{fill:#80BC2A;}
	.st22{fill:#3C7651;}
	.st23{fill:#3B7550;}
	.st24{fill:#80AA94;}
	.st25{fill:#FAFCFC;}
	.st26{fill:#25524A;}
	.st27{fill:#A9A01F;}
	.st28{fill:#23995B;}
	.st29{fill:#1D4479;}
	.st30{fill:none;stroke:#262728;stroke-width:1.0774;stroke-miterlimit:10;}
	.st31{fill:#28378C;}
	.st32{fill:#40A6E2;}
	.st33{fill:#FCCE1C;}
	.st34{fill:none;stroke:#737373;stroke-width:1.11;stroke-miterlimit:10;}
	.st35{fill:#00B9D7;}
	.st36{fill:none;stroke:#FFFFFF;stroke-width:1.5619;stroke-miterlimit:10;}
	.st37{fill:#2B3A3B;}
	.st38{fill:none;stroke:#6E1215;stroke-width:0.6419;stroke-miterlimit:10;}
	.st39{fill:none;stroke:#6E1215;stroke-width:0.4466;stroke-miterlimit:10;}
	.st40{opacity:0.88;fill:none;stroke:#93B48E;stroke-width:0.5596;stroke-miterlimit:10;}
	.st41{fill:none;stroke:#FFFFFF;stroke-width:0.9404;stroke-miterlimit:10;}
	.st42{fill:none;stroke:#737373;stroke-width:0.5012;stroke-miterlimit:10;}
	.st43{fill:none;stroke:#FFFFFF;stroke-width:1.3888;stroke-miterlimit:10;}
	.st44{fill:none;stroke:#737373;stroke-width:0.7403;stroke-miterlimit:10;}
	.st45{fill:none;stroke:#23995B;stroke-width:0.6635;stroke-miterlimit:10;}
	.st46{fill:none;stroke:#23995B;stroke-width:0.3962;stroke-miterlimit:10;}
	.st47{fill:none;stroke:#28378C;stroke-width:2;stroke-miterlimit:10;}
	.st48{fill:none;stroke:#28378C;stroke-width:1.0909;stroke-miterlimit:10;}
	.st49{fill:#96AFCE;}
	.st50{fill:#3B3888;}
	.st51{fill:none;stroke:#DE001C;stroke-width:0.451;stroke-miterlimit:10;}
	.st52{fill:none;stroke:#DE001C;stroke-width:0.1983;stroke-miterlimit:10;}
	.st53{fill:none;stroke:#DE001C;stroke-width:0.3536;stroke-miterlimit:10;}
	.st54{fill:none;stroke:#808080;stroke-width:0.3418;stroke-miterlimit:10;}
	.st55{fill:none;stroke:#808080;stroke-width:0.2279;stroke-miterlimit:10;}
	.st56{fill:#37B2B5;}
	.st57{fill:#000100;}
	.st58{fill:none;stroke:#C85119;stroke-width:0.8469;stroke-miterlimit:10;}
	.st59{fill:#C85119;}
	.st60{fill:#1A1718;}
	.st61{fill:none;stroke:#96AFCE;stroke-width:0.5236;stroke-miterlimit:10;}
	.st62{fill:#F2F3F1;}
	.st63{fill:#F2F3F2;}
	.st64{fill:#F1F6F2;}
	.st65{fill:#EFF2F0;}
	.st66{fill:#DFE8E2;}
	.st67{fill:#EDF0EC;}
	.st68{fill:none;stroke:#808080;stroke-width:0.736;stroke-miterlimit:10;}
	.st69{fill:none;stroke:#25524A;stroke-width:1.193;stroke-miterlimit:10;}
	.st70{fill:#3CA835;}
	.st71{fill:#020201;}
	.st72{fill:#37B2B5;stroke:#37B2B5;stroke-width:0.6822;stroke-miterlimit:10;}
	.st73{fill:#737373;}
	.st74{fill:#0B4485;}
	.st75{fill:none;stroke:#262728;stroke-width:1.1895;stroke-miterlimit:10;}
	.st76{fill:#6E1215;}
	.st77{opacity:0.88;}
	.st78{fill:#DE001C;}
	.st79{fill:#DF001B;}
	.st80{fill:#020201;stroke:#FFFFFF;stroke-width:0.5409;stroke-miterlimit:10;}
	.st81{fill:#DF001B;stroke:#FFFFFF;stroke-width:0.5409;stroke-miterlimit:10;}
	.st82{fill:#FFFFFF;stroke:#FFFFFF;stroke-width:2;stroke-miterlimit:10;}
	.st83{fill:#23985B;}
	.st84{fill:#262728;}
	.st85{fill:none;stroke:#FFFFFF;stroke-width:1.6144;stroke-miterlimit:10;}
	.st86{fill:none;stroke:#737373;stroke-width:0.7652;stroke-miterlimit:10;}
	.st87{fill:none;stroke:#808080;stroke-width:0.3675;stroke-miterlimit:10;}
	.st88{fill:none;stroke:#40A6E2;stroke-width:1.408;stroke-miterlimit:10;}
	.st89{fill:#DF001B;stroke:#FFFFFF;stroke-width:0.4562;stroke-miterlimit:10;}
	.st90{fill:#1A1818;}
</style>
<g>
	<path class="st59" d="M17.9,15.5c0.1,0.2,0.3,0.4,0.4,0.6c0.1,0.2,0.2,0.4,0.3,0.6c0,0.1,0.1,0.1,0.1,0.2c0,0.1,0.1,0.1,0.1,0.2
		c0-0.1,0-0.3,0-0.4c0-0.1,0-0.3,0-0.4c0-0.1,0-0.3,0-0.4c0-0.1,0-0.3,0-0.4v-8c0-1-0.1-1.6-0.4-1.8c-0.3-0.2-0.6-0.4-1-0.5
		c-0.1,0-0.3,0-0.4-0.1c-0.1,0-0.3-0.1-0.5-0.1V4.3h5.7v0.8c-0.9,0-1.5,0.2-1.9,0.6c-0.4,0.4-0.5,1-0.5,1.9V21h-1L10,8.7
		C9.7,8.3,9.4,7.9,9.1,7.5C8.8,7.1,8.6,6.6,8.3,6.2v10.5c0,1,0.1,1.8,0.4,2.4c0.2,0.6,0.9,0.9,2.1,1v0.8H4.9v-0.8
		c0.9,0,1.6-0.3,1.9-0.7c0.4-0.4,0.5-1.1,0.5-2V7c0-0.9-0.2-1.5-0.6-1.7c-0.4-0.2-1-0.3-1.8-0.3c0,0,0,0,0,0c0,0,0,0,0,0V4.3h4.9
		L17.9,15.5z"/>
	<path class="st59" d="M32.4,15h-0.8c0-0.7-0.1-1.3-0.4-1.8c-0.3-0.5-0.8-0.7-1.7-0.7h-1.7v5.6c0,0.9,0.2,1.5,0.6,1.7
		c0.4,0.2,1,0.3,1.8,0.3c0,0,0,0,0.1,0s0,0,0.1,0v0.8h-7.4v-0.8c0,0,0,0,0,0c0,0,0,0,0,0c0.8,0,1.4-0.1,1.8-0.3
		c0.4-0.2,0.6-0.7,0.6-1.7V7c0-0.9-0.2-1.5-0.6-1.7c-0.4-0.2-1-0.3-1.8-0.3c0,0,0,0,0,0c0,0,0,0,0,0V4.3H35l0.4,4h-0.7
		c-0.3-0.9-0.6-1.6-1.1-2.3c-0.5-0.6-1.2-0.9-2.2-0.9h-3.6v6.6h1.8c0.7,0,1.2-0.2,1.5-0.7c0.3-0.4,0.4-1,0.4-1.7h0.8V15z"/>
	<path class="st59" d="M45.3,21.3c-2.5,0-4.6-0.8-6.3-2.5c-1.7-1.6-2.5-3.7-2.5-6.2c0-2.6,0.8-4.7,2.5-6.3c1.7-1.6,3.8-2.4,6.3-2.4
		c2.5,0,4.6,0.8,6.3,2.4c1.7,1.6,2.5,3.7,2.5,6.3c0,2.5-0.8,4.6-2.5,6.2C49.9,20.4,47.8,21.3,45.3,21.3L45.3,21.3z M49.9,18.1
		c0.9-1.5,1.3-3.3,1.4-5.1c0-0.1,0-0.1,0-0.2c0-0.1,0-0.1,0-0.2c0-0.1,0-0.2,0-0.2c0-0.1,0-0.2,0-0.2c-0.1-1.9-0.5-3.6-1.4-5.1
		c-0.9-1.5-2.4-2.3-4.6-2.3c-2.2,0-3.7,0.8-4.5,2.3c-0.9,1.5-1.3,3.2-1.4,5.1c0,0.1,0,0.2,0,0.2c0,0.1,0,0.2,0,0.2c0,0,0,0.1,0,0.1
		c0,0,0,0.1,0,0.1c0,1.9,0.5,3.6,1.3,5.2c0.9,1.6,2.4,2.4,4.6,2.4C47.5,20.4,49,19.6,49.9,18.1z"/>
	<path class="st59" d="M71.8,10.3H71c-0.4-1.6-1-2.9-2-4c-0.9-1.1-2.3-1.6-4-1.6c-1.8,0-3.1,0.6-4,1.9c-0.9,1.3-1.4,2.7-1.6,4.2
		c0,0.2-0.1,0.5-0.1,0.7c0,0.2,0,0.5,0,0.7c0,1.9,0.5,3.7,1.4,5.3c1,1.6,2.5,2.4,4.7,2.4c0,0,0.1,0,0.2,0c0.1,0,0.1,0,0.2,0
		c1.2-0.1,2.4-0.5,3.4-1.3c1.1-0.8,1.8-1.7,2.3-2.8l0.9,0.7c-0.6,1.4-1.6,2.5-3,3.3c-1.3,0.8-2.8,1.2-4.3,1.3c0,0-0.1,0-0.2,0
		c-0.1,0-0.1,0-0.2,0c-2.5,0-4.5-0.8-6-2.4c-1.5-1.6-2.3-3.6-2.3-6.1c0-2.4,0.8-4.5,2.3-6.3c1.5-1.8,3.6-2.6,6.1-2.6
		c1,0,1.9,0.1,2.8,0.4c0.9,0.3,1.8,0.7,2.6,1.3c0.1-0.1,0.2-0.3,0.2-0.4c0.1-0.1,0.1-0.3,0.2-0.4c0-0.1,0-0.1,0.1-0.2
		c0-0.1,0.1-0.1,0.1-0.2h0.7L71.8,10.3z"/>
	<path class="st59" d="M77.9,16.1h-5.3v-1.2h5.3V16.1z"/>
	<path class="st59" d="M88.1,20.9h-9.6l0.2-1c0.3-0.3,0.6-0.5,1-0.8c0.3-0.3,0.7-0.6,1-0.9c1.4-1.3,2.8-2.8,4-4.5
		c1.2-1.7,1.8-3.5,1.8-5.4c0-0.9-0.3-1.6-0.8-2.3c-0.6-0.7-1.3-1-2.2-1c-0.9,0-1.6,0.3-2.2,0.9c-0.6,0.6-0.9,1.3-0.9,2.2
		c0,0.1,0,0.2,0,0.3c0,0.1,0,0.2,0,0.3c0.1,0.4,0.2,0.8,0.5,1.1c0.2,0.3,0.6,0.6,0.9,0.7c0,0.1-0.1,0.3-0.3,0.4
		c-0.1,0.1-0.3,0.2-0.5,0.2c-0.1,0-0.1,0-0.2,0c-0.1,0-0.1,0-0.2,0c-0.4,0-0.8-0.2-1.1-0.5c-0.3-0.3-0.4-0.7-0.5-1.2
		C79,9.1,79,9,78.9,8.9c0-0.1,0-0.3,0-0.4c0-1.3,0.5-2.3,1.4-3c0.9-0.7,2-1.1,3.2-1.1c1.4,0,2.6,0.4,3.5,1.3c1,0.9,1.5,2,1.5,3.4
		c0,1.7-0.6,3.2-1.7,4.6c-1.1,1.4-2.3,2.6-3.7,3.7c-0.4,0.3-0.8,0.6-1.2,0.9c-0.4,0.3-0.8,0.6-1.1,0.9h5.9c0.5,0,0.8-0.1,1-0.4
		c0.2-0.3,0.4-0.6,0.5-1c0,0,0,0,0-0.1c0,0,0,0,0-0.1c0-0.1,0-0.1,0.1-0.2c0-0.1,0.1-0.1,0.1-0.2h0.6L88.1,20.9z"/>
	<path class="st59" d="M95.3,21.1c-0.9,0-1.7-0.3-2.4-0.8c-0.7-0.5-1.2-1.2-1.7-1.9c-0.5-0.9-0.8-1.8-1-2.7c-0.2-1-0.3-1.9-0.3-2.9
		c0-0.4,0-0.9,0.1-1.4c0-0.5,0.1-1,0.2-1.6C90.7,8.4,91.2,7.2,92,6c0.8-1.1,1.9-1.7,3.3-1.7c1.5,0,2.6,0.6,3.4,1.7
		c0.8,1.1,1.3,2.4,1.6,3.7c0.1,0.5,0.2,1,0.2,1.5c0,0.5,0.1,1,0.1,1.4c0,0.4,0,0.9-0.1,1.4c0,0.5-0.1,1-0.2,1.5
		c-0.3,1.4-0.8,2.6-1.6,3.7C97.9,20.5,96.8,21.1,95.3,21.1L95.3,21.1z M97.2,19.2c0.4-0.9,0.7-1.8,0.9-2.8c0.1-0.7,0.2-1.5,0.2-2.1
		c0-0.7,0-1.2,0-1.6s0-0.9,0-1.6c0-0.7-0.1-1.4-0.2-2.1c-0.2-1-0.5-2-0.9-2.8c-0.4-0.9-1.1-1.3-1.9-1.3s-1.5,0.4-1.9,1.3
		S92.7,8,92.5,9c-0.1,0.7-0.2,1.5-0.2,2.1c0,0.7,0,1.2,0,1.6s0,0.9,0,1.6c0,0.7,0.1,1.4,0.2,2.1c0.2,1,0.5,2,0.9,2.8
		c0.4,0.9,1.1,1.3,1.9,1.3S96.8,20.1,97.2,19.2z"/>
	<path class="st59" d="M111.3,20.9h-9.6l0.2-1c0.3-0.3,0.6-0.5,1-0.8c0.3-0.3,0.7-0.6,1-0.9c1.4-1.3,2.8-2.8,4-4.5
		c1.2-1.7,1.8-3.5,1.8-5.4c0-0.9-0.3-1.6-0.8-2.3c-0.6-0.7-1.3-1-2.2-1c-0.9,0-1.6,0.3-2.2,0.9c-0.6,0.6-0.9,1.3-0.9,2.2
		c0,0.1,0,0.2,0,0.3c0,0.1,0,0.2,0,0.3c0.1,0.4,0.2,0.8,0.5,1.1c0.2,0.3,0.6,0.6,0.9,0.7c0,0.1-0.1,0.3-0.3,0.4
		c-0.1,0.1-0.3,0.2-0.5,0.2c-0.1,0-0.1,0-0.2,0c-0.1,0-0.1,0-0.2,0c-0.4,0-0.8-0.2-1.1-0.5c-0.3-0.3-0.4-0.7-0.5-1.2
		c0-0.1-0.1-0.3-0.1-0.4c0-0.1,0-0.3,0-0.4c0-1.3,0.5-2.3,1.4-3c0.9-0.7,2-1.1,3.2-1.1c1.4,0,2.6,0.4,3.5,1.3c1,0.9,1.5,2,1.5,3.4
		c0,1.7-0.6,3.2-1.7,4.6c-1.1,1.4-2.3,2.6-3.7,3.7c-0.4,0.3-0.8,0.6-1.2,0.9c-0.4,0.3-0.8,0.6-1.1,0.9h5.9c0.5,0,0.8-0.1,1-0.4
		c0.2-0.3,0.4-0.6,0.5-1c0,0,0,0,0-0.1c0,0,0,0,0-0.1c0-0.1,0-0.1,0.1-0.2c0-0.1,0.1-0.1,0.1-0.2h0.6L111.3,20.9z"/>
	<path class="st59" d="M117.3,10.5c0.5-0.2,1.1-0.3,1.7-0.3c1.4,0,2.6,0.5,3.4,1.6c0.8,1.1,1.3,2.3,1.3,3.7c0,1.4-0.4,2.7-1.3,3.9
		c-0.9,1.1-2.1,1.7-3.7,1.7c-1.7,0-3-0.6-3.8-1.9c-0.8-1.3-1.3-2.7-1.4-4.2c0-0.1,0-0.3,0-0.4c0-0.1,0-0.3,0-0.4c0-0.4,0-0.8,0-1.2
		c0-0.4,0.1-0.8,0.1-1.2c0.3-1.9,1-3.6,2.2-5.2c1.1-1.6,2.7-2.3,4.8-2.3c0.1,0,0.3,0,0.5,0c0.2,0,0.3,0,0.5,0.1
		c0.4,0.1,0.8,0.2,1.1,0.5c0.3,0.2,0.5,0.6,0.5,1c0,0.2-0.1,0.4-0.2,0.6c-0.2,0.2-0.4,0.3-0.6,0.3s-0.5-0.1-0.6-0.2
		c-0.2-0.2-0.3-0.3-0.5-0.6c0,0,0-0.1,0-0.1c0,0,0-0.1-0.1-0.1c-0.1-0.2-0.3-0.4-0.5-0.6c-0.2-0.2-0.5-0.3-0.8-0.3
		c-1,0-1.7,0.4-2.3,1.3c-0.6,0.8-1,1.8-1.3,2.7c-0.1,0.5-0.2,0.9-0.3,1.4s-0.1,0.9-0.1,1.2C116.2,11,116.7,10.7,117.3,10.5z
		 M121.6,14.8c0-0.3,0-0.6-0.1-0.8c-0.1-0.8-0.4-1.5-0.9-2.2c-0.4-0.7-1.1-1-2-1c-0.9,0-1.5,0.3-2,1c-0.4,0.6-0.7,1.3-0.9,2.1
		c0,0.2-0.1,0.5-0.1,0.7c0,0.2,0,0.4,0,0.7c0,0.3,0,0.6,0,1c0,0.3,0.1,0.7,0.1,1c0.1,0.8,0.4,1.6,0.9,2.3c0.4,0.7,1.1,1,2,1
		c0.9,0,1.5-0.3,1.9-1c0.4-0.7,0.7-1.4,0.8-2.2c0-0.3,0.1-0.6,0.1-0.9c0-0.3,0-0.6,0-0.9C121.6,15.3,121.6,15,121.6,14.8z"/>
</g>
<g>
	<path class="st60" d="M12.3,39.8c0,0.6-0.2,1.2-0.5,1.6c-0.3,0.4-0.7,0.8-1.3,1c-0.6,0.2-1.2,0.4-2,0.4c-0.4,0-0.8,0-1.1-0.1
		s-0.7-0.1-1-0.2c-0.3-0.1-0.6-0.2-0.8-0.3V41c0.4,0.2,0.8,0.3,1.3,0.4c0.5,0.1,1.1,0.2,1.6,0.2c0.5,0,1-0.1,1.3-0.2
		c0.4-0.1,0.6-0.3,0.8-0.6c0.2-0.3,0.3-0.6,0.3-0.9c0-0.3-0.1-0.6-0.2-0.9c-0.1-0.2-0.4-0.5-0.8-0.7c-0.4-0.2-0.9-0.4-1.5-0.6
		c-0.5-0.2-0.9-0.3-1.2-0.5s-0.6-0.4-0.9-0.7C6.2,36.3,6,36,5.9,35.7c-0.1-0.3-0.2-0.7-0.2-1.1c0-0.6,0.1-1,0.4-1.4s0.7-0.7,1.2-0.9
		c0.5-0.2,1.1-0.3,1.8-0.3c0.6,0,1.1,0.1,1.6,0.2c0.5,0.1,0.9,0.3,1.3,0.4l-0.4,1.1c-0.4-0.2-0.8-0.3-1.2-0.4
		c-0.4-0.1-0.9-0.2-1.3-0.2c-0.4,0-0.8,0.1-1.1,0.2c-0.3,0.1-0.5,0.3-0.7,0.5c-0.1,0.2-0.2,0.5-0.2,0.8c0,0.4,0.1,0.7,0.2,0.9
		C7.5,35.8,7.7,36,8,36.2c0.3,0.2,0.8,0.4,1.4,0.6c0.6,0.2,1.1,0.5,1.6,0.7c0.4,0.3,0.8,0.6,1,0.9C12.2,38.8,12.3,39.3,12.3,39.8z"
		/>
	<path class="st60" d="M17.3,34.6c0.7,0,1.3,0.1,1.8,0.4c0.5,0.3,0.9,0.7,1.1,1.3c0.3,0.5,0.4,1.2,0.4,1.9v0.8h-5.4
		c0,0.9,0.2,1.6,0.7,2.1c0.4,0.5,1.1,0.7,1.8,0.7c0.5,0,1,0,1.3-0.1s0.8-0.2,1.2-0.4v1.1c-0.4,0.2-0.8,0.3-1.2,0.4
		c-0.4,0.1-0.9,0.1-1.4,0.1c-0.8,0-1.4-0.2-2-0.5c-0.6-0.3-1-0.8-1.3-1.4c-0.3-0.6-0.5-1.4-0.5-2.2c0-0.9,0.1-1.6,0.4-2.2
		c0.3-0.6,0.7-1.1,1.2-1.4C16,34.7,16.6,34.6,17.3,34.6z M17.3,35.6c-0.6,0-1.1,0.2-1.5,0.6s-0.6,1-0.6,1.7h4c0-0.5-0.1-0.8-0.2-1.2
		c-0.1-0.3-0.3-0.6-0.6-0.8C18.1,35.7,17.7,35.6,17.3,35.6z"/>
	<path class="st60" d="M26.4,34.6c1,0,1.8,0.3,2.4,1c0.6,0.7,0.9,1.7,0.9,3.1c0,0.9-0.1,1.7-0.4,2.3c-0.3,0.6-0.7,1.1-1.1,1.4
		c-0.5,0.3-1.1,0.5-1.7,0.5c-0.4,0-0.8-0.1-1.1-0.2c-0.3-0.1-0.6-0.2-0.8-0.4c-0.2-0.2-0.4-0.4-0.6-0.6h-0.1c0,0.2,0,0.4,0.1,0.6
		c0,0.3,0,0.5,0,0.7v3.3h-1.3V34.7h1.1l0.2,1.1h0.1c0.2-0.2,0.3-0.4,0.6-0.6s0.5-0.3,0.8-0.4C25.6,34.6,25.9,34.6,26.4,34.6z
		 M26.1,35.7c-0.5,0-1,0.1-1.3,0.3c-0.3,0.2-0.6,0.5-0.7,0.9c-0.1,0.4-0.2,0.9-0.2,1.5v0.3c0,0.7,0.1,1.2,0.2,1.7s0.4,0.8,0.7,1
		c0.3,0.2,0.8,0.4,1.4,0.4c0.5,0,0.9-0.1,1.2-0.4c0.3-0.3,0.5-0.6,0.7-1.1c0.2-0.5,0.2-1,0.2-1.6c0-0.9-0.2-1.6-0.5-2.2
		S26.9,35.7,26.1,35.7z"/>
	<path class="st60" d="M34.3,41.7c0.2,0,0.4,0,0.6-0.1c0.2,0,0.4-0.1,0.5-0.1v1c-0.1,0.1-0.3,0.1-0.6,0.2c-0.3,0-0.5,0.1-0.7,0.1
		c-0.4,0-0.8-0.1-1.1-0.2c-0.4-0.1-0.6-0.4-0.9-0.7c-0.2-0.4-0.3-0.9-0.3-1.5v-4.6h-1.1v-0.6l1.1-0.5l0.5-1.7h0.8v1.8h2.3v1h-2.3
		v4.6c0,0.5,0.1,0.8,0.3,1.1S34,41.7,34.3,41.7z"/>
	<path class="st60" d="M40.1,34.6c0.7,0,1.3,0.1,1.8,0.4c0.5,0.3,0.9,0.7,1.1,1.3c0.3,0.5,0.4,1.2,0.4,1.9v0.8h-5.4
		c0,0.9,0.2,1.6,0.7,2.1c0.4,0.5,1.1,0.7,1.8,0.7c0.5,0,1,0,1.3-0.1s0.8-0.2,1.2-0.4v1.1c-0.4,0.2-0.8,0.3-1.2,0.4
		c-0.4,0.1-0.9,0.1-1.4,0.1c-0.8,0-1.4-0.2-2-0.5c-0.6-0.3-1-0.8-1.3-1.4c-0.3-0.6-0.5-1.4-0.5-2.2c0-0.9,0.1-1.6,0.4-2.2
		c0.3-0.6,0.7-1.1,1.2-1.4C38.8,34.7,39.4,34.6,40.1,34.6z M40.1,35.6c-0.6,0-1.1,0.2-1.5,0.6s-0.6,1-0.6,1.7h4
		c0-0.5-0.1-0.8-0.2-1.2c-0.1-0.3-0.3-0.6-0.6-0.8C40.9,35.7,40.5,35.6,40.1,35.6z"/>
	<path class="st60" d="M54.1,34.6c0.9,0,1.6,0.2,2,0.7s0.7,1.2,0.7,2.2v5.2h-1.3v-5.1c0-0.6-0.1-1.1-0.4-1.4
		c-0.3-0.3-0.7-0.5-1.2-0.5c-0.8,0-1.3,0.2-1.7,0.7c-0.3,0.4-0.5,1.1-0.5,1.9v4.4h-1.3v-5.1c0-0.4-0.1-0.8-0.2-1S50,36,49.7,35.9
		c-0.2-0.1-0.5-0.2-0.9-0.2c-0.5,0-1,0.1-1.3,0.3c-0.3,0.2-0.5,0.5-0.7,1c-0.1,0.4-0.2,0.9-0.2,1.6v4.1h-1.3v-7.9h1.1l0.2,1.1h0.1
		c0.2-0.3,0.4-0.5,0.6-0.7c0.2-0.2,0.5-0.3,0.8-0.4c0.3-0.1,0.6-0.1,0.9-0.1c0.6,0,1.1,0.1,1.5,0.3c0.4,0.2,0.7,0.6,0.9,1h0.1
		c0.3-0.5,0.6-0.8,1.1-1C53.1,34.7,53.6,34.6,54.1,34.6z"/>
	<path class="st60" d="M60.5,34.1c0,0.3,0,0.6,0,0.9s0,0.5-0.1,0.7h0.1c0.2-0.3,0.5-0.6,0.9-0.8c0.4-0.2,0.9-0.3,1.5-0.3
		c1,0,1.8,0.3,2.4,1c0.6,0.7,0.9,1.7,0.9,3.1c0,0.9-0.1,1.7-0.4,2.3s-0.7,1.1-1.1,1.4c-0.5,0.3-1.1,0.5-1.7,0.5
		c-0.6,0-1.1-0.1-1.5-0.3s-0.7-0.5-0.9-0.8h-0.1l-0.3,1h-0.9V31.4h1.3V34.1z M62.8,35.7c-0.6,0-1,0.1-1.3,0.3s-0.6,0.5-0.7,1
		c-0.1,0.4-0.2,1-0.2,1.7v0.1c0,1,0.2,1.7,0.5,2.2c0.3,0.5,0.9,0.8,1.8,0.8c0.7,0,1.2-0.3,1.6-0.8c0.4-0.5,0.5-1.3,0.5-2.3
		c0-1-0.2-1.7-0.5-2.3S63.5,35.7,62.8,35.7z"/>
	<path class="st60" d="M71.4,34.6c0.7,0,1.3,0.1,1.8,0.4c0.5,0.3,0.9,0.7,1.1,1.3c0.3,0.5,0.4,1.2,0.4,1.9v0.8h-5.4
		c0,0.9,0.2,1.6,0.7,2.1c0.4,0.5,1.1,0.7,1.8,0.7c0.5,0,1,0,1.3-0.1s0.8-0.2,1.2-0.4v1.1c-0.4,0.2-0.8,0.3-1.2,0.4
		c-0.4,0.1-0.9,0.1-1.4,0.1c-0.8,0-1.4-0.2-2-0.5c-0.6-0.3-1-0.8-1.3-1.4c-0.3-0.6-0.5-1.4-0.5-2.2c0-0.9,0.1-1.6,0.4-2.2
		c0.3-0.6,0.7-1.1,1.2-1.4C70.1,34.7,70.7,34.6,71.4,34.6z M71.4,35.6c-0.6,0-1.1,0.2-1.5,0.6s-0.6,1-0.6,1.7h4
		c0-0.5-0.1-0.8-0.2-1.2c-0.1-0.3-0.3-0.6-0.6-0.8C72.2,35.7,71.8,35.6,71.4,35.6z"/>
	<path class="st60" d="M80.4,34.6c0.1,0,0.3,0,0.5,0c0.2,0,0.3,0,0.5,0.1l-0.2,1.2c-0.1,0-0.3-0.1-0.4-0.1c-0.2,0-0.3,0-0.4,0
		c-0.3,0-0.6,0.1-0.9,0.2c-0.3,0.1-0.5,0.3-0.7,0.5c-0.2,0.2-0.4,0.5-0.5,0.8C78.1,37.6,78,38,78,38.4v4.2h-1.3v-7.9h1.1l0.1,1.5H78
		c0.2-0.3,0.4-0.6,0.6-0.8c0.2-0.2,0.5-0.4,0.8-0.6C79.7,34.6,80,34.6,80.4,34.6z"/>
	<path class="st60" d="M93.1,42.6h-7v-1.1l2.8-2.8c0.5-0.5,1-1,1.3-1.4s0.6-0.8,0.8-1.2c0.2-0.4,0.3-0.8,0.3-1.3
		c0-0.6-0.2-1-0.5-1.3C90.5,33.2,90,33,89.5,33c-0.5,0-1,0.1-1.4,0.3c-0.4,0.2-0.8,0.4-1.2,0.7l-0.7-0.9c0.3-0.2,0.6-0.4,0.9-0.6
		c0.3-0.2,0.7-0.3,1.1-0.4c0.4-0.1,0.8-0.2,1.3-0.2c0.7,0,1.2,0.1,1.7,0.3s0.8,0.6,1.1,1c0.3,0.4,0.4,0.9,0.4,1.5
		c0,0.6-0.1,1.1-0.3,1.6c-0.2,0.5-0.5,1-0.9,1.4c-0.4,0.5-0.9,1-1.4,1.5l-2.2,2.2v0.1h5.3V42.6z"/>
	<path class="st60" d="M101.2,34.5c0,0.5-0.1,0.9-0.3,1.2c-0.2,0.3-0.4,0.6-0.8,0.8c-0.3,0.2-0.7,0.4-1.2,0.5v0.1
		c0.8,0.1,1.5,0.4,1.9,0.8c0.4,0.4,0.6,1,0.6,1.7c0,0.6-0.1,1.2-0.4,1.6c-0.3,0.5-0.7,0.9-1.3,1.1c-0.6,0.3-1.4,0.4-2.3,0.4
		c-0.6,0-1.1,0-1.5-0.1c-0.5-0.1-0.9-0.2-1.4-0.5V41c0.4,0.2,0.9,0.4,1.4,0.5c0.5,0.1,1,0.2,1.5,0.2c0.9,0,1.6-0.2,2.1-0.6
		c0.4-0.4,0.6-0.9,0.6-1.5c0-0.4-0.1-0.8-0.3-1.1c-0.2-0.3-0.6-0.5-1-0.6c-0.4-0.1-1-0.2-1.6-0.2h-1v-1.1h1c0.6,0,1.1-0.1,1.5-0.3
		c0.4-0.2,0.7-0.4,0.9-0.7c0.2-0.3,0.3-0.6,0.3-1c0-0.5-0.2-0.9-0.5-1.2C99,33.2,98.5,33,97.9,33c-0.4,0-0.7,0-1,0.1
		s-0.6,0.2-0.9,0.3c-0.3,0.1-0.5,0.3-0.8,0.5L94.6,33c0.4-0.3,0.8-0.6,1.4-0.8c0.6-0.2,1.2-0.3,1.9-0.3c1.1,0,1.9,0.2,2.5,0.7
		C100.9,33.2,101.2,33.8,101.2,34.5z"/>
	<path class="st60" d="M102.9,39.3v-1.2h3.6v1.2H102.9z"/>
	<path class="st60" d="M114.8,42.6h-7v-1.1l2.8-2.8c0.5-0.5,1-1,1.3-1.4s0.6-0.8,0.8-1.2c0.2-0.4,0.3-0.8,0.3-1.3
		c0-0.6-0.2-1-0.5-1.3c-0.3-0.3-0.8-0.5-1.3-0.5c-0.5,0-1,0.1-1.4,0.3c-0.4,0.2-0.8,0.4-1.2,0.7l-0.7-0.9c0.3-0.2,0.6-0.4,0.9-0.6
		c0.3-0.2,0.7-0.3,1.1-0.4c0.4-0.1,0.8-0.2,1.3-0.2c0.7,0,1.2,0.1,1.7,0.3s0.8,0.6,1.1,1c0.3,0.4,0.4,0.9,0.4,1.5
		c0,0.6-0.1,1.1-0.3,1.6c-0.2,0.5-0.5,1-0.9,1.4c-0.4,0.5-0.9,1-1.4,1.5l-2.2,2.2v0.1h5.3V42.6z"/>
	<path class="st60" d="M123.8,40.2h-1.5v2.4H121v-2.4h-5.1v-1.1l5-7.1h1.3v7.1h1.5V40.2z M121,35.7c0-0.3,0-0.5,0-0.7
		c0-0.2,0-0.4,0-0.6c0-0.2,0-0.4,0-0.5c0-0.2,0-0.3,0-0.5H121c-0.1,0.2-0.2,0.4-0.3,0.6c-0.1,0.2-0.2,0.4-0.3,0.5l-3.2,4.5h3.8V35.7
		z"/>
</g>
<g>
	<rect x="5.2" y="26.1" class="st59" width="118.5" height="0.8"/>
</g>
</svg>
